name C:\Users\u0101727\Documents\MyRepositories\upper-imu-dc\Results\main_tracking\Case_22\SHRUG01_linearAccelerations_bodyFrame.mot
datacolumns 4
datarows 82
range 0.71000000 1.52000000
endheader 
time	radius_imu_x	radius_imu_y	radius_imu_z	
          0.71000000	         -3.69657354	          9.40675682	          4.06854729	
          0.72000000	         -2.49157763	          9.26526448	          3.27505496	
          0.73000000	         -1.75074474	          9.22707025	          2.74950545	
          0.74000000	         -1.36952890	          9.20560993	          2.42852334	
          0.75000000	         -1.23677564	          9.17922664	          2.24617683	
          0.76000000	         -1.25803720	          9.15053663	          2.16252381	
          0.77000000	         -1.34998397	          9.12643941	          2.14504103	
          0.78000000	         -1.46048913	          9.11513148	          2.17009092	
          0.79000000	         -1.57507993	          9.12014103	          2.21826530	
          0.80000000	         -1.70484544	          9.13989732	          2.27456396	
          0.81000000	         -1.87343547	          9.16910433	          2.32788951	
          0.82000000	         -2.08970897	          9.20580711	          2.37101611	
          0.83000000	         -2.35368848	          9.24558335	          2.40408146	
          0.84000000	         -2.64341114	          9.28845570	          2.42830039	
          0.85000000	         -2.94210562	          9.33257789	          2.44861117	
          0.86000000	         -3.22505589	          9.38308243	          2.47021459	
          0.87000000	         -3.48466663	          9.43596073	          2.50139309	
          0.88000000	         -3.70485834	          9.49975238	          2.54767349	
          0.89000000	         -3.87727383	          9.58161818	          2.61607470	
          0.90000000	         -3.98860332	          9.68689476	          2.71191743	
          0.91000000	         -4.01857396	          9.82188880	          2.83816932	
          0.92000000	         -3.94521124	          9.98692951	          2.99460227	
          0.93000000	         -3.75492958	         10.16942638	          3.17761766	
          0.94000000	         -3.44681986	         10.34888522	          3.37782432	
          0.95000000	         -3.04437443	         10.49516854	          3.58352141	
          0.96000000	         -2.58256323	         10.57866946	          3.78052084	
          0.97000000	         -2.10646733	         10.57793706	          3.95689376	
          0.98000000	         -1.65891708	         10.48610721	          4.10456679	
          0.99000000	         -1.27365041	         10.31427462	          4.22172061	
          1.00000000	         -0.97188768	         10.08874373	          4.31231289	
          1.01000000	         -0.76118572	          9.84366373	          4.38279455	
          1.02000000	         -0.63706236	          9.61206839	          4.43880455	
          1.03000000	         -0.58608935	          9.41873664	          4.48229537	
          1.04000000	         -0.59357955	          9.27702962	          4.51103376	
          1.05000000	         -0.65280695	          9.18977447	          4.52031897	
          1.06000000	         -0.76987641	          9.15330212	          4.50566672	
          1.07000000	         -0.96126017	          9.16155508	          4.46470014	
          1.08000000	         -1.24687064	          9.20729310	          4.39719033	
          1.09000000	         -1.64314989	          9.28087220	          4.30406907	
          1.10000000	         -2.15787794	          9.36900960	          4.18576956	
          1.11000000	         -2.78622170	          9.45564690	          4.04148144	
          1.12000000	         -3.50842172	          9.52569305	          3.86834693	
          1.13000000	         -4.28971522	          9.57037055	          3.66207191	
          1.14000000	         -5.08161170	          9.59089147	          3.41772444	
          1.15000000	         -5.82396664	          9.60072226	          3.13255468	
          1.16000000	         -6.45232336	          9.62291823	          2.80927813	
          1.17000000	         -6.90920524	          9.68209303	          2.45915899	
          1.18000000	         -7.15188176	          9.79098511	          2.10308836	
          1.19000000	         -7.15260939	          9.93449171	          1.77018129	
          1.20000000	         -6.89214197	         10.05426446	          1.49206557	
          1.21000000	         -6.35531549	         10.03892692	          1.29274333	
          1.22000000	         -5.51813837	          9.74389451	          1.17273473	
          1.23000000	         -4.32696917	          9.01464089	          1.05417424	
          1.24000000	         -2.62723470	          8.07836358	          0.90095001	
          1.25000000	         -0.05991269	          6.86793749	         -0.12752727	
          1.26000000	         -0.41240650	          7.61490229	          0.94686456	
          1.27000000	          1.46209614	          5.45945629	          1.81127160	
          1.28000000	          3.19199980	          4.42552173	          1.43329850	
          1.29000000	          3.27302359	          6.36455094	          1.71755556	
          1.30000000	          3.19094745	         10.24936479	          2.47923415	
          1.31000000	          2.14249182	         10.87281125	          3.49852270	
          1.32000000	          0.58669836	         11.31746728	          4.55163900	
          1.33000000	          1.14711356	          9.70234554	          5.10475060	
          1.34000000	          3.58382522	          7.71289328	          4.64500925	
          1.35000000	          3.77149447	          9.83437555	          6.15108096	
          1.36000000	          6.47955756	          8.28763772	          6.00478694	
          1.37000000	          7.22335061	          6.66323616	          5.89780885	
          1.38000000	          5.74379216	          7.40532155	          6.45173386	
          1.39000000	          3.90594400	          7.64694950	          6.28978806	
          1.40000000	          2.06424023	          7.82967215	          5.70082001	
          1.41000000	          0.31734345	          7.92916922	          4.84406396	
          1.42000000	         -1.33630077	          8.00464523	          3.88164862	
          1.43000000	         -2.85136160	          8.09643631	          2.94068415	
          1.44000000	         -4.19957342	          8.21086330	          2.09651560	
          1.45000000	         -5.35873537	          8.33196905	          1.38660148	
          1.46000000	         -6.31574573	          8.44464953	          0.82940155	
          1.47000000	         -7.05756837	          8.54882981	          0.42819839	
          1.48000000	         -7.57985143	          8.64435070	          0.18065863	
          1.49000000	         -7.88962926	          8.71811535	          0.08048454	
          1.50000000	         -8.02535829	          8.69126570	          0.10928709	
          1.51000000	         -8.06279539	          8.45965939	          0.24263775	
          1.52000000	         -8.07471460	          7.91600162	          0.39332760	
